<?xml version="1.0" standalone="no"?>
<svg xmlns:xlink="http://www.w3.org/1999/xlink" id="wave" style="transform:rotate(0deg); transition: 0.3s" viewBox="0 0 1440 240" version="1.1" xmlns="http://www.w3.org/2000/svg"><defs><linearGradient id="sw-gradient-0" x1="0" x2="0" y1="1" y2="0"><stop stop-color="rgba(126, 114, 152, 1)" offset="0%"/><stop stop-color="rgba(126, 114, 152, 1)" offset="100%"/></linearGradient></defs><path style="transform:translate(0, 0px); opacity:1" fill="url(#sw-gradient-0)" d="M0,72L21.8,72C43.6,72,87,72,131,88C174.5,104,218,136,262,144C305.5,152,349,136,393,140C436.4,144,480,168,524,184C567.3,200,611,208,655,180C698.2,152,742,88,785,76C829.1,64,873,104,916,120C960,136,1004,128,1047,108C1090.9,88,1135,56,1178,60C1221.8,64,1265,104,1309,108C1352.7,112,1396,80,1440,68C1483.6,56,1527,64,1571,72C1614.5,80,1658,88,1702,76C1745.5,64,1789,32,1833,52C1876.4,72,1920,144,1964,172C2007.3,200,2051,184,2095,176C2138.2,168,2182,168,2225,152C2269.1,136,2313,104,2356,80C2400,56,2444,40,2487,56C2530.9,72,2575,120,2618,132C2661.8,144,2705,120,2749,124C2792.7,128,2836,160,2880,144C2923.6,128,2967,64,3011,56C3054.5,48,3098,96,3120,120L3141.8,144L3141.8,240L3120,240C3098.2,240,3055,240,3011,240C2967.3,240,2924,240,2880,240C2836.4,240,2793,240,2749,240C2705.5,240,2662,240,2618,240C2574.5,240,2531,240,2487,240C2443.6,240,2400,240,2356,240C2312.7,240,2269,240,2225,240C2181.8,240,2138,240,2095,240C2050.9,240,2007,240,1964,240C1920,240,1876,240,1833,240C1789.1,240,1745,240,1702,240C1658.2,240,1615,240,1571,240C1527.3,240,1484,240,1440,240C1396.4,240,1353,240,1309,240C1265.5,240,1222,240,1178,240C1134.5,240,1091,240,1047,240C1003.6,240,960,240,916,240C872.7,240,829,240,785,240C741.8,240,698,240,655,240C610.9,240,567,240,524,240C480,240,436,240,393,240C349.1,240,305,240,262,240C218.2,240,175,240,131,240C87.3,240,44,240,22,240L0,240Z"/></svg>