<?xml version="1.0" standalone="no"?>
<svg xmlns:xlink="http://www.w3.org/1999/xlink" id="wave" style="transform:rotate(180deg); transition: 0.3s" viewBox="0 0 1440 120" version="1.1" xmlns="http://www.w3.org/2000/svg"><defs><linearGradient id="sw-gradient-0" x1="0" x2="0" y1="1" y2="0"><stop stop-color="rgba(126, 114, 152, 1)" offset="0%"/><stop stop-color="rgba(126, 114, 152, 1)" offset="100%"/></linearGradient></defs><path style="transform:translate(0, 0px); opacity:1" fill="url(#sw-gradient-0)" d="M0,84L14.1,74C28.2,64,56,44,85,30C112.9,16,141,8,169,4C197.6,0,226,0,254,18C282.4,36,311,72,339,76C367.1,80,395,52,424,48C451.8,44,480,64,508,64C536.5,64,565,44,593,38C621.2,32,649,40,678,52C705.9,64,734,80,762,78C790.6,76,819,56,847,58C875.3,60,904,84,932,84C960,84,988,60,1016,56C1044.7,52,1073,68,1101,80C1129.4,92,1158,100,1186,88C1214.1,76,1242,44,1271,40C1298.8,36,1327,60,1355,64C1383.5,68,1412,52,1440,56C1468.2,60,1496,84,1525,88C1552.9,92,1581,76,1609,60C1637.6,44,1666,28,1694,20C1722.4,12,1751,12,1779,26C1807.1,40,1835,68,1864,82C1891.8,96,1920,96,1948,92C1976.5,88,2005,80,2019,76L2032.9,72L2032.9,120L2018.8,120C2004.7,120,1976,120,1948,120C1920,120,1892,120,1864,120C1835.3,120,1807,120,1779,120C1750.6,120,1722,120,1694,120C1665.9,120,1638,120,1609,120C1581.2,120,1553,120,1525,120C1496.5,120,1468,120,1440,120C1411.8,120,1384,120,1355,120C1327.1,120,1299,120,1271,120C1242.4,120,1214,120,1186,120C1157.6,120,1129,120,1101,120C1072.9,120,1045,120,1016,120C988.2,120,960,120,932,120C903.5,120,875,120,847,120C818.8,120,791,120,762,120C734.1,120,706,120,678,120C649.4,120,621,120,593,120C564.7,120,536,120,508,120C480,120,452,120,424,120C395.3,120,367,120,339,120C310.6,120,282,120,254,120C225.9,120,198,120,169,120C141.2,120,113,120,85,120C56.5,120,28,120,14,120L0,120Z"/></svg>