<?xml version="1.0" standalone="no"?><svg xmlns="http://www.w3.org/2000/svg" viewBox="0 0 1440 320"><path fill="#7e7298" fill-opacity="1" d="M0,288L30,272C60,256,120,224,180,229.3C240,235,300,277,360,288C420,299,480,277,540,240C600,203,660,149,720,154.7C780,160,840,224,900,218.7C960,213,1020,139,1080,138.7C1140,139,1200,213,1260,250.7C1320,288,1380,288,1410,288L1440,288L1440,320L1410,320C1380,320,1320,320,1260,320C1200,320,1140,320,1080,320C1020,320,960,320,900,320C840,320,780,320,720,320C660,320,600,320,540,320C480,320,420,320,360,320C300,320,240,320,180,320C120,320,60,320,30,320L0,320Z"></path></svg>