<?xml version="1.0" standalone="no"?><svg xmlns="http://www.w3.org/2000/svg" viewBox="0 0 1440 320"><path fill="#7e7298" fill-opacity="1" d="M0,192L30,202.7C60,213,120,235,180,208C240,181,300,107,360,101.3C420,96,480,160,540,192C600,224,660,224,720,197.3C780,171,840,117,900,128C960,139,1020,213,1080,229.3C1140,245,1200,203,1260,208C1320,213,1380,267,1410,293.3L1440,320L1440,320L1410,320C1380,320,1320,320,1260,320C1200,320,1140,320,1080,320C1020,320,960,320,900,320C840,320,780,320,720,320C660,320,600,320,540,320C480,320,420,320,360,320C300,320,240,320,180,320C120,320,60,320,30,320L0,320Z"></path></svg>